<mxfile host="app.diagrams.net" agent="Mozilla/5.0 (Windows NT 10.0; Win64; x64) AppleWebKit/537.36 (KHTML, like Gecko) Chrome/130.0.0.0 Safari/537.36" version="24.8.4">
  <diagram name="Page-1" id="rPx-ND3tR1v6-9SasS-W">
    <mxGraphModel dx="2169" dy="696" grid="1" gridSize="10" guides="1" tooltips="1" connect="1" arrows="1" fold="1" page="1" pageScale="1" pageWidth="850" pageHeight="1100" math="0" shadow="0">
      <root>
        <mxCell id="0" />
        <mxCell id="1" parent="0" />
        <mxCell id="pl0MzwOkIgg34zQqI0X9-18" value="food" style="swimlane;fontStyle=1;align=center;verticalAlign=top;childLayout=stackLayout;horizontal=1;startSize=26;horizontalStack=0;resizeParent=1;resizeParentMax=0;resizeLast=0;collapsible=1;marginBottom=0;whiteSpace=wrap;html=1;" parent="1" vertex="1">
          <mxGeometry x="740" y="312" width="160" height="124" as="geometry" />
        </mxCell>
        <mxCell id="pl0MzwOkIgg34zQqI0X9-19" value="&lt;div&gt;- Cuisine: enum&lt;/div&gt;&lt;div&gt;- isHealthy: boolean&lt;br&gt;&lt;div&gt;- isVegan: boolean&lt;/div&gt;&lt;/div&gt;&lt;div&gt;- hasProtein: boolean&lt;/div&gt;" style="text;strokeColor=none;fillColor=none;align=left;verticalAlign=top;spacingLeft=4;spacingRight=4;overflow=hidden;rotatable=0;points=[[0,0.5],[1,0.5]];portConstraint=eastwest;whiteSpace=wrap;html=1;" parent="pl0MzwOkIgg34zQqI0X9-18" vertex="1">
          <mxGeometry y="26" width="160" height="64" as="geometry" />
        </mxCell>
        <mxCell id="pl0MzwOkIgg34zQqI0X9-20" value="" style="line;strokeWidth=1;fillColor=none;align=left;verticalAlign=middle;spacingTop=-1;spacingLeft=3;spacingRight=3;rotatable=0;labelPosition=right;points=[];portConstraint=eastwest;strokeColor=inherit;" parent="pl0MzwOkIgg34zQqI0X9-18" vertex="1">
          <mxGeometry y="90" width="160" height="8" as="geometry" />
        </mxCell>
        <mxCell id="pl0MzwOkIgg34zQqI0X9-21" value="+ makeLimitedEdition()" style="text;strokeColor=none;fillColor=none;align=left;verticalAlign=top;spacingLeft=4;spacingRight=4;overflow=hidden;rotatable=0;points=[[0,0.5],[1,0.5]];portConstraint=eastwest;whiteSpace=wrap;html=1;" parent="pl0MzwOkIgg34zQqI0X9-18" vertex="1">
          <mxGeometry y="98" width="160" height="26" as="geometry" />
        </mxCell>
        <mxCell id="pl0MzwOkIgg34zQqI0X9-28" value="Extends" style="endArrow=block;endSize=16;endFill=0;html=1;rounded=0;entryX=0.363;entryY=1.284;entryDx=0;entryDy=0;entryPerimeter=0;exitX=0.5;exitY=0;exitDx=0;exitDy=0;" parent="1" source="pl0MzwOkIgg34zQqI0X9-18" target="IGt5kcmPySrDVzL9us4Y-24" edge="1">
          <mxGeometry width="160" relative="1" as="geometry">
            <mxPoint x="740" y="220" as="sourcePoint" />
            <mxPoint x="879.04" y="189.98400000000015" as="targetPoint" />
          </mxGeometry>
        </mxCell>
        <mxCell id="pl0MzwOkIgg34zQqI0X9-72" value="music" style="swimlane;fontStyle=1;align=center;verticalAlign=top;childLayout=stackLayout;horizontal=1;startSize=26;horizontalStack=0;resizeParent=1;resizeParentMax=0;resizeLast=0;collapsible=1;marginBottom=0;whiteSpace=wrap;html=1;" parent="1" vertex="1">
          <mxGeometry x="940" y="309" width="160" height="110" as="geometry" />
        </mxCell>
        <mxCell id="pl0MzwOkIgg34zQqI0X9-73" value="- genre: enum&lt;div&gt;- wayOfPlaying: enum&lt;/div&gt;" style="text;strokeColor=none;fillColor=none;align=left;verticalAlign=top;spacingLeft=4;spacingRight=4;overflow=hidden;rotatable=0;points=[[0,0.5],[1,0.5]];portConstraint=eastwest;whiteSpace=wrap;html=1;" parent="pl0MzwOkIgg34zQqI0X9-72" vertex="1">
          <mxGeometry y="26" width="160" height="34" as="geometry" />
        </mxCell>
        <mxCell id="pl0MzwOkIgg34zQqI0X9-74" value="" style="line;strokeWidth=1;fillColor=none;align=left;verticalAlign=middle;spacingTop=-1;spacingLeft=3;spacingRight=3;rotatable=0;labelPosition=right;points=[];portConstraint=eastwest;strokeColor=inherit;" parent="pl0MzwOkIgg34zQqI0X9-72" vertex="1">
          <mxGeometry y="60" width="160" height="8" as="geometry" />
        </mxCell>
        <mxCell id="pl0MzwOkIgg34zQqI0X9-75" value="&lt;div&gt;+ addConcert&lt;/div&gt;" style="text;strokeColor=none;fillColor=none;align=left;verticalAlign=top;spacingLeft=4;spacingRight=4;overflow=hidden;rotatable=0;points=[[0,0.5],[1,0.5]];portConstraint=eastwest;whiteSpace=wrap;html=1;" parent="pl0MzwOkIgg34zQqI0X9-72" vertex="1">
          <mxGeometry y="68" width="160" height="42" as="geometry" />
        </mxCell>
        <mxCell id="7X1WRaAmBW6ElxP2y-qZ-3" value="Extends" style="endArrow=block;endSize=16;endFill=0;html=1;rounded=0;entryX=0.697;entryY=1.051;entryDx=0;entryDy=0;exitX=0.5;exitY=0;exitDx=0;exitDy=0;entryPerimeter=0;" parent="1" source="pl0MzwOkIgg34zQqI0X9-72" target="IGt5kcmPySrDVzL9us4Y-24" edge="1">
          <mxGeometry width="160" relative="1" as="geometry">
            <mxPoint x="580" y="410" as="sourcePoint" />
            <mxPoint x="1040" y="138" as="targetPoint" />
          </mxGeometry>
        </mxCell>
        <mxCell id="7X1WRaAmBW6ElxP2y-qZ-8" style="edgeStyle=orthogonalEdgeStyle;rounded=0;orthogonalLoop=1;jettySize=auto;html=1;exitX=0;exitY=0.5;exitDx=0;exitDy=0;entryX=0.5;entryY=0;entryDx=0;entryDy=0;" parent="1" edge="1">
          <mxGeometry relative="1" as="geometry">
            <mxPoint x="350" y="37.00000000000023" as="sourcePoint" />
            <mxPoint x="170" y="70" as="targetPoint" />
          </mxGeometry>
        </mxCell>
        <mxCell id="7X1WRaAmBW6ElxP2y-qZ-9" style="edgeStyle=orthogonalEdgeStyle;rounded=0;orthogonalLoop=1;jettySize=auto;html=1;entryX=0.5;entryY=0;entryDx=0;entryDy=0;" parent="1" edge="1">
          <mxGeometry relative="1" as="geometry">
            <Array as="points">
              <mxPoint x="695" y="40" />
              <mxPoint x="695" y="20" />
              <mxPoint x="960" y="20" />
            </Array>
            <mxPoint x="510" y="40" as="sourcePoint" />
            <mxPoint x="960" y="40" as="targetPoint" />
          </mxGeometry>
        </mxCell>
        <mxCell id="5Ifjruar0XOg7K9GVX_--2" value="Extends" style="endArrow=block;endSize=16;endFill=0;html=1;rounded=0;entryX=0.714;entryY=1.226;entryDx=0;entryDy=0;entryPerimeter=0;" parent="1" target="IGt5kcmPySrDVzL9us4Y-44" edge="1">
          <mxGeometry width="160" relative="1" as="geometry">
            <mxPoint x="370" y="400" as="sourcePoint" />
            <mxPoint x="180.07999999999993" y="200" as="targetPoint" />
          </mxGeometry>
        </mxCell>
        <mxCell id="5Ifjruar0XOg7K9GVX_--17" value="Extends" style="endArrow=block;endSize=16;endFill=0;html=1;rounded=0;exitX=0.5;exitY=0;exitDx=0;exitDy=0;entryX=0.274;entryY=1.133;entryDx=0;entryDy=0;entryPerimeter=0;" parent="1" target="IGt5kcmPySrDVzL9us4Y-44" edge="1">
          <mxGeometry width="160" relative="1" as="geometry">
            <mxPoint x="-80" y="430" as="sourcePoint" />
            <mxPoint x="140.07999999999993" y="200" as="targetPoint" />
          </mxGeometry>
        </mxCell>
        <mxCell id="IGt5kcmPySrDVzL9us4Y-11" value="socialMedia" style="swimlane;fontStyle=1;align=center;verticalAlign=top;childLayout=stackLayout;horizontal=1;startSize=26;horizontalStack=0;resizeParent=1;resizeParentMax=0;resizeLast=0;collapsible=1;marginBottom=0;whiteSpace=wrap;html=1;" vertex="1" parent="1">
          <mxGeometry x="300" y="410" width="160" height="160" as="geometry" />
        </mxCell>
        <mxCell id="IGt5kcmPySrDVzL9us4Y-12" value="+&amp;nbsp;&lt;span style=&quot;background-color: initial;&quot;&gt;likeToDislikeRatio:int&lt;/span&gt;&lt;div&gt;-shareRatio:int&lt;/div&gt;&lt;div&gt;-platform:enum&lt;/div&gt;" style="text;strokeColor=none;fillColor=none;align=left;verticalAlign=top;spacingLeft=4;spacingRight=4;overflow=hidden;rotatable=0;points=[[0,0.5],[1,0.5]];portConstraint=eastwest;whiteSpace=wrap;html=1;" vertex="1" parent="IGt5kcmPySrDVzL9us4Y-11">
          <mxGeometry y="26" width="160" height="64" as="geometry" />
        </mxCell>
        <mxCell id="IGt5kcmPySrDVzL9us4Y-13" value="" style="line;strokeWidth=1;fillColor=none;align=left;verticalAlign=middle;spacingTop=-1;spacingLeft=3;spacingRight=3;rotatable=0;labelPosition=right;points=[];portConstraint=eastwest;strokeColor=inherit;" vertex="1" parent="IGt5kcmPySrDVzL9us4Y-11">
          <mxGeometry y="90" width="160" height="8" as="geometry" />
        </mxCell>
        <mxCell id="IGt5kcmPySrDVzL9us4Y-14" value="+makePost()&lt;div&gt;+makeAd()&lt;/div&gt;&lt;p style=&quot;margin: 0px 0px 0px 4px;&quot;&gt;&lt;span style=&quot;background-color: initial;&quot;&gt;+collab()&lt;/span&gt;()&lt;/p&gt;" style="text;strokeColor=none;fillColor=none;align=left;verticalAlign=top;spacingLeft=4;spacingRight=4;overflow=hidden;rotatable=0;points=[[0,0.5],[1,0.5]];portConstraint=eastwest;whiteSpace=wrap;html=1;" vertex="1" parent="IGt5kcmPySrDVzL9us4Y-11">
          <mxGeometry y="98" width="160" height="62" as="geometry" />
        </mxCell>
        <mxCell id="IGt5kcmPySrDVzL9us4Y-21" value="trends(abstract)" style="swimlane;fontStyle=1;align=center;verticalAlign=top;childLayout=stackLayout;horizontal=1;startSize=26;horizontalStack=0;resizeParent=1;resizeParentMax=0;resizeLast=0;collapsible=1;marginBottom=0;whiteSpace=wrap;html=1;" vertex="1" parent="1">
          <mxGeometry x="880" y="40" width="160" height="144" as="geometry" />
        </mxCell>
        <mxCell id="IGt5kcmPySrDVzL9us4Y-22" value="-enum: type&lt;div&gt;-spreadRate; double&lt;/div&gt;&lt;div&gt;-numUpgrades; int&lt;/div&gt;&lt;div&gt;-peopleConverted; int&lt;/div&gt;&lt;div&gt;- InitialModifiers: enum&lt;br&gt;&lt;/div&gt;&lt;div&gt;&lt;br&gt;&lt;/div&gt;" style="text;strokeColor=none;fillColor=none;align=left;verticalAlign=top;spacingLeft=4;spacingRight=4;overflow=hidden;rotatable=0;points=[[0,0.5],[1,0.5]];portConstraint=eastwest;whiteSpace=wrap;html=1;" vertex="1" parent="IGt5kcmPySrDVzL9us4Y-21">
          <mxGeometry y="26" width="160" height="84" as="geometry" />
        </mxCell>
        <mxCell id="IGt5kcmPySrDVzL9us4Y-23" value="" style="line;strokeWidth=1;fillColor=none;align=left;verticalAlign=middle;spacingTop=-1;spacingLeft=3;spacingRight=3;rotatable=0;labelPosition=right;points=[];portConstraint=eastwest;strokeColor=inherit;" vertex="1" parent="IGt5kcmPySrDVzL9us4Y-21">
          <mxGeometry y="110" width="160" height="8" as="geometry" />
        </mxCell>
        <mxCell id="IGt5kcmPySrDVzL9us4Y-24" value="+ modify()" style="text;strokeColor=none;fillColor=none;align=left;verticalAlign=top;spacingLeft=4;spacingRight=4;overflow=hidden;rotatable=0;points=[[0,0.5],[1,0.5]];portConstraint=eastwest;whiteSpace=wrap;html=1;" vertex="1" parent="IGt5kcmPySrDVzL9us4Y-21">
          <mxGeometry y="118" width="160" height="26" as="geometry" />
        </mxCell>
        <mxCell id="5Ifjruar0XOg7K9GVX_--16" value="Extends" style="endArrow=block;endSize=16;endFill=0;html=1;rounded=0;exitX=0.518;exitY=0.052;exitDx=0;exitDy=0;exitPerimeter=0;entryX=0.475;entryY=1.133;entryDx=0;entryDy=0;entryPerimeter=0;" parent="1" target="IGt5kcmPySrDVzL9us4Y-44" edge="1">
          <mxGeometry width="160" relative="1" as="geometry">
            <mxPoint x="162.8800000000001" y="415.7199999999998" as="sourcePoint" />
            <mxPoint x="160.07999999999993" y="200" as="targetPoint" />
          </mxGeometry>
        </mxCell>
        <mxCell id="IGt5kcmPySrDVzL9us4Y-29" value="billboards" style="swimlane;fontStyle=1;align=center;verticalAlign=top;childLayout=stackLayout;horizontal=1;startSize=26;horizontalStack=0;resizeParent=1;resizeParentMax=0;resizeLast=0;collapsible=1;marginBottom=0;whiteSpace=wrap;html=1;" vertex="1" parent="1">
          <mxGeometry x="72" y="419" width="160" height="170" as="geometry" />
        </mxCell>
        <mxCell id="IGt5kcmPySrDVzL9us4Y-30" value="-location: int&lt;div&gt;-amountOfTraffic; int&lt;/div&gt;&lt;div&gt;-isScreen: boolean&lt;/div&gt;&lt;div&gt;-length: int&lt;/div&gt;&lt;div&gt;-price: int&lt;/div&gt;" style="text;strokeColor=none;fillColor=none;align=left;verticalAlign=top;spacingLeft=4;spacingRight=4;overflow=hidden;rotatable=0;points=[[0,0.5],[1,0.5]];portConstraint=eastwest;whiteSpace=wrap;html=1;" vertex="1" parent="IGt5kcmPySrDVzL9us4Y-29">
          <mxGeometry y="26" width="160" height="84" as="geometry" />
        </mxCell>
        <mxCell id="IGt5kcmPySrDVzL9us4Y-31" value="" style="line;strokeWidth=1;fillColor=none;align=left;verticalAlign=middle;spacingTop=-1;spacingLeft=3;spacingRight=3;rotatable=0;labelPosition=right;points=[];portConstraint=eastwest;strokeColor=inherit;" vertex="1" parent="IGt5kcmPySrDVzL9us4Y-29">
          <mxGeometry y="110" width="160" height="8" as="geometry" />
        </mxCell>
        <mxCell id="IGt5kcmPySrDVzL9us4Y-32" value="+ rent(int numberOfDays)&lt;div&gt;+buy()&lt;/div&gt;&lt;div&gt;+getNumberofViewers()&lt;/div&gt;" style="text;strokeColor=none;fillColor=none;align=left;verticalAlign=top;spacingLeft=4;spacingRight=4;overflow=hidden;rotatable=0;points=[[0,0.5],[1,0.5]];portConstraint=eastwest;whiteSpace=wrap;html=1;" vertex="1" parent="IGt5kcmPySrDVzL9us4Y-29">
          <mxGeometry y="118" width="160" height="52" as="geometry" />
        </mxCell>
        <mxCell id="IGt5kcmPySrDVzL9us4Y-37" value="magazine" style="swimlane;fontStyle=1;align=center;verticalAlign=top;childLayout=stackLayout;horizontal=1;startSize=26;horizontalStack=0;resizeParent=1;resizeParentMax=0;resizeLast=0;collapsible=1;marginBottom=0;whiteSpace=wrap;html=1;" vertex="1" parent="1">
          <mxGeometry x="-160" y="430" width="160" height="124" as="geometry" />
        </mxCell>
        <mxCell id="IGt5kcmPySrDVzL9us4Y-38" value="-pages; int&lt;div&gt;-numberOfCopies:int&lt;/div&gt;&lt;div&gt;-location: enum&lt;/div&gt;&lt;div&gt;-frontPage: boolean&lt;/div&gt;" style="text;strokeColor=none;fillColor=none;align=left;verticalAlign=top;spacingLeft=4;spacingRight=4;overflow=hidden;rotatable=0;points=[[0,0.5],[1,0.5]];portConstraint=eastwest;whiteSpace=wrap;html=1;" vertex="1" parent="IGt5kcmPySrDVzL9us4Y-37">
          <mxGeometry y="26" width="160" height="64" as="geometry" />
        </mxCell>
        <mxCell id="IGt5kcmPySrDVzL9us4Y-39" value="" style="line;strokeWidth=1;fillColor=none;align=left;verticalAlign=middle;spacingTop=-1;spacingLeft=3;spacingRight=3;rotatable=0;labelPosition=right;points=[];portConstraint=eastwest;strokeColor=inherit;" vertex="1" parent="IGt5kcmPySrDVzL9us4Y-37">
          <mxGeometry y="90" width="160" height="8" as="geometry" />
        </mxCell>
        <mxCell id="IGt5kcmPySrDVzL9us4Y-40" value="+printMagazines()" style="text;strokeColor=none;fillColor=none;align=left;verticalAlign=top;spacingLeft=4;spacingRight=4;overflow=hidden;rotatable=0;points=[[0,0.5],[1,0.5]];portConstraint=eastwest;whiteSpace=wrap;html=1;" vertex="1" parent="IGt5kcmPySrDVzL9us4Y-37">
          <mxGeometry y="98" width="160" height="26" as="geometry" />
        </mxCell>
        <mxCell id="IGt5kcmPySrDVzL9us4Y-41" value="upgrades(abstract)" style="swimlane;fontStyle=1;align=center;verticalAlign=top;childLayout=stackLayout;horizontal=1;startSize=26;horizontalStack=0;resizeParent=1;resizeParentMax=0;resizeLast=0;collapsible=1;marginBottom=0;whiteSpace=wrap;html=1;" vertex="1" parent="1">
          <mxGeometry x="90" y="70" width="160" height="170" as="geometry" />
        </mxCell>
        <mxCell id="IGt5kcmPySrDVzL9us4Y-42" value="-targetAge; int&lt;div&gt;-targetGender enum&lt;/div&gt;&lt;div&gt;&lt;span style=&quot;background-color: initial;&quot;&gt;-targetRace: enum&lt;/span&gt;&lt;/div&gt;&lt;div&gt;&lt;span style=&quot;background-color: initial;&quot;&gt;-targetSalaryRange; int&lt;/span&gt;&lt;/div&gt;" style="text;strokeColor=none;fillColor=none;align=left;verticalAlign=top;spacingLeft=4;spacingRight=4;overflow=hidden;rotatable=0;points=[[0,0.5],[1,0.5]];portConstraint=eastwest;whiteSpace=wrap;html=1;" vertex="1" parent="IGt5kcmPySrDVzL9us4Y-41">
          <mxGeometry y="26" width="160" height="84" as="geometry" />
        </mxCell>
        <mxCell id="IGt5kcmPySrDVzL9us4Y-43" value="" style="line;strokeWidth=1;fillColor=none;align=left;verticalAlign=middle;spacingTop=-1;spacingLeft=3;spacingRight=3;rotatable=0;labelPosition=right;points=[];portConstraint=eastwest;strokeColor=inherit;" vertex="1" parent="IGt5kcmPySrDVzL9us4Y-41">
          <mxGeometry y="110" width="160" height="8" as="geometry" />
        </mxCell>
        <mxCell id="IGt5kcmPySrDVzL9us4Y-44" value="+getCost()&lt;div&gt;+getTargetAge()&lt;/div&gt;&lt;div&gt;+getTargetSalaryRange()&lt;/div&gt;" style="text;strokeColor=none;fillColor=none;align=left;verticalAlign=top;spacingLeft=4;spacingRight=4;overflow=hidden;rotatable=0;points=[[0,0.5],[1,0.5]];portConstraint=eastwest;whiteSpace=wrap;html=1;" vertex="1" parent="IGt5kcmPySrDVzL9us4Y-41">
          <mxGeometry y="118" width="160" height="52" as="geometry" />
        </mxCell>
        <mxCell id="IGt5kcmPySrDVzL9us4Y-51" value="viralWave" style="swimlane;fontStyle=1;align=center;verticalAlign=top;childLayout=stackLayout;horizontal=1;startSize=26;horizontalStack=0;resizeParent=1;resizeParentMax=0;resizeLast=0;collapsible=1;marginBottom=0;whiteSpace=wrap;html=1;" vertex="1" parent="1">
          <mxGeometry x="350" y="10" width="160" height="100" as="geometry" />
        </mxCell>
        <mxCell id="IGt5kcmPySrDVzL9us4Y-52" value="+numOfUpgrades" style="text;strokeColor=none;fillColor=none;align=left;verticalAlign=top;spacingLeft=4;spacingRight=4;overflow=hidden;rotatable=0;points=[[0,0.5],[1,0.5]];portConstraint=eastwest;whiteSpace=wrap;html=1;" vertex="1" parent="IGt5kcmPySrDVzL9us4Y-51">
          <mxGeometry y="26" width="160" height="26" as="geometry" />
        </mxCell>
        <mxCell id="IGt5kcmPySrDVzL9us4Y-53" value="" style="line;strokeWidth=1;fillColor=none;align=left;verticalAlign=middle;spacingTop=-1;spacingLeft=3;spacingRight=3;rotatable=0;labelPosition=right;points=[];portConstraint=eastwest;strokeColor=inherit;" vertex="1" parent="IGt5kcmPySrDVzL9us4Y-51">
          <mxGeometry y="52" width="160" height="8" as="geometry" />
        </mxCell>
        <mxCell id="IGt5kcmPySrDVzL9us4Y-54" value="+createNewSimulation()&lt;div&gt;+createUpgrade()&lt;/div&gt;" style="text;strokeColor=none;fillColor=none;align=left;verticalAlign=top;spacingLeft=4;spacingRight=4;overflow=hidden;rotatable=0;points=[[0,0.5],[1,0.5]];portConstraint=eastwest;whiteSpace=wrap;html=1;" vertex="1" parent="IGt5kcmPySrDVzL9us4Y-51">
          <mxGeometry y="60" width="160" height="40" as="geometry" />
        </mxCell>
      </root>
    </mxGraphModel>
  </diagram>
</mxfile>
